<svg id="Layer_1" enable-background="new 0 0 512 512" height="512" viewBox="0 0 512 512" width="512" xmlns="http://www.w3.org/2000/svg"><g><g><path d="m493.644 211.136-23.073-3.846c-5.501-24.389-15.033-47.397-28.406-68.568l13.6-19.04c6.367-8.917 5.929-20.029-1.066-27.024l-35.356-35.355c-6.996-6.997-18.11-7.436-27.024-1.067l-19.039 13.599c-21.163-13.372-44.172-22.904-68.567-28.406l-3.846-23.075c-1.804-10.806-9.972-18.354-19.867-18.354h-50c-9.894 0-18.062 7.548-19.864 18.355l-3.846 23.074c-24.396 5.502-47.404 15.034-68.568 28.406l-19.038-13.598c-8.916-6.369-20.029-5.931-27.024 1.066l-35.358 35.355c-6.996 6.996-7.434 18.109-1.066 27.025l13.599 19.039c-13.374 21.172-22.905 44.178-28.406 68.568l-23.073 3.846c-10.808 1.801-18.357 9.969-18.356 19.864v50c-.001 9.894 7.547 18.062 18.355 19.865l23.074 3.845c5.501 24.391 15.032 47.396 28.406 68.568l-13.599 19.039c-6.368 8.916-5.929 20.029 1.066 27.025l35.355 35.354c6.996 6.998 18.109 7.436 27.025 1.067l19.038-13.599c21.164 13.372 44.173 22.904 68.568 28.406l3.846 23.075c1.803 10.807 9.972 18.355 19.866 18.355h50c9.895 0 18.062-7.548 19.864-18.355l3.846-23.074c24.396-5.502 47.404-15.034 68.567-28.406l19.038 13.598c8.916 6.37 20.029 5.931 27.025-1.065l35.356-35.355c6.995-6.995 7.434-18.108 1.066-27.025l-13.6-19.039c13.373-21.17 22.905-44.179 28.406-68.568l23.074-3.846c10.809-1.802 18.356-9.97 18.354-19.863v-50c.004-9.897-7.544-18.065-18.352-19.866zm-1.645 69.431c-.286.177-.827.432-1.643.568l-29.817 4.97c-4.124.687-7.385 3.867-8.176 7.971-5.118 26.556-15.411 51.402-30.593 73.849-2.342 3.461-2.283 8.014.146 11.415l17.571 24.6c.482.674.685 1.238.761 1.565l-34.743 34.743c-.328-.077-.891-.279-1.563-.761l-24.602-17.572c-3.402-2.429-7.956-2.486-11.416-.145-22.437 15.18-47.281 25.472-73.847 30.592-4.104.791-7.284 4.052-7.972 8.175l-4.97 29.818c-.136.816-.391 1.357-.568 1.643h-49.135c-.178-.286-.433-.827-.568-1.643l-4.97-29.818c-.687-4.124-3.867-7.384-7.972-8.175-26.564-5.119-51.41-15.412-73.847-30.592-3.462-2.343-8.016-2.285-11.416.145l-24.601 17.572c-.673.481-1.236.684-1.563.76l-34.744-34.743c.076-.328.279-.891.76-1.564l17.572-24.601c2.429-3.401 2.487-7.953.146-11.415-15.182-22.446-25.475-47.293-30.593-73.849-.791-4.104-4.052-7.284-8.175-7.971l-29.817-4.97c-.816-.136-1.358-.391-1.644-.569v-49.135c.286-.177.827-.432 1.643-.568l29.817-4.97c4.124-.687 7.384-3.867 8.175-7.971 5.118-26.556 15.411-51.402 30.593-73.849 2.341-3.462 2.283-8.014-.146-11.415l-17.571-24.6c-.481-.674-.684-1.237-.76-1.565l34.744-34.743c.327.076.89.279 1.563.76l24.601 17.572c3.402 2.429 7.955 2.487 11.416.145 22.437-15.18 47.282-25.473 73.847-30.592 4.105-.791 7.285-4.052 7.972-8.175l4.97-29.818c.136-.816.391-1.358.569-1.643h49.135c.178.285.433.827.568 1.643l4.97 29.818c.688 4.124 3.867 7.384 7.972 8.175 26.565 5.12 51.41 15.412 73.847 30.592 3.459 2.342 8.013 2.285 11.416-.145l24.603-17.573c.673-.48 1.235-.683 1.562-.759l34.743 34.743c-.076.328-.278.891-.76 1.564l-17.572 24.601c-2.429 3.401-2.487 7.954-.146 11.415 15.182 22.446 25.475 47.292 30.593 73.848.791 4.105 4.052 7.285 8.176 7.972l29.817 4.97c.815.136 1.357.39 1.643.568v49.137z"/><path d="m256 86c-28.671 0-57.027 7.283-82.003 21.062-4.836 2.668-6.593 8.751-3.925 13.586 2.668 4.837 8.751 6.594 13.586 3.925 98.227-55.247 223.328 18.575 222.341 131.427.001 82.71-67.289 150-149.999 150-112.851.97-186.675-124.103-131.428-222.337 2.666-4.835.909-10.918-3.926-13.586-4.837-2.668-10.919-.911-13.587 3.925-62.625 111.346 21.038 253.104 148.943 251.996 225.516-9.329 225.471-330.692-.002-339.998z"/><path d="m166 337.634h157.692c17.815 0 32.309-14.58 32.309-32.5v-71.128c0-17.92-14.493-32.5-32.309-32.5h-45.438l-12.3-42.156c-3.672-12.583-15.052-21.715-27.06-21.715h-22.495c-5.523 0-10 4.477-10 10v53.872h-40.399c-5.523 0-10 4.477-10 10v116.128c0 2.652 1.054 5.196 2.929 7.071s4.418 2.928 7.071 2.928zm60.399-180h12.495c2.996 0 6.742 3.488 7.86 7.317l14.401 49.355c1.244 4.267 5.155 7.199 9.6 7.199h52.938c6.787 0 12.309 5.607 12.309 12.5v71.128c0 6.893-5.521 12.5-12.309 12.5h-97.293v-159.999zm-50.399 63.872h30.399v96.128h-30.399z"/><path d="m142.863 152.864c2.401 0 4.811-.859 6.727-2.602 4.086-3.715 4.388-10.04.673-14.126-3.716-4.087-10.04-4.388-14.126-.673l-.005.005c-4.086 3.715-4.385 10.037-.67 14.124 1.972 2.171 4.681 3.272 7.401 3.272z"/></g></g></svg>