<svg width="165" height="36" viewBox="0 0 165 36" fill="none" xmlns="http://www.w3.org/2000/svg">
<path d="M32.0161 9.248V26H28.6561V9.248H32.0161ZM51.8477 12.512C53.4797 12.512 54.7917 13.016 55.7838 14.024C56.7917 15.016 57.2957 16.408 57.2957 18.2V26H53.9357V18.656C53.9357 17.616 53.6717 16.824 53.1437 16.28C52.6157 15.72 51.8957 15.44 50.9837 15.44C50.0717 15.44 49.3437 15.72 48.7997 16.28C48.2717 16.824 48.0077 17.616 48.0077 18.656V26H44.6477V18.656C44.6477 17.616 44.3837 16.824 43.8557 16.28C43.3277 15.72 42.6077 15.44 41.6957 15.44C40.7677 15.44 40.0317 15.72 39.4877 16.28C38.9597 16.824 38.6957 17.616 38.6957 18.656V26H35.3357V12.704H38.6957V14.312C39.1277 13.752 39.6797 13.312 40.3517 12.992C41.0397 12.672 41.7917 12.512 42.6077 12.512C43.6477 12.512 44.5757 12.736 45.3917 13.184C46.2077 13.616 46.8397 14.24 47.2877 15.056C47.7197 14.288 48.3437 13.672 49.1597 13.208C49.9917 12.744 50.8877 12.512 51.8477 12.512ZM59.6202 19.304C59.6202 17.96 59.8842 16.768 60.4122 15.728C60.9562 14.688 61.6842 13.888 62.5962 13.328C63.5242 12.768 64.5562 12.488 65.6922 12.488C66.6842 12.488 67.5482 12.688 68.2842 13.088C69.0362 13.488 69.6362 13.992 70.0842 14.6V12.704H73.4682V26H70.0842V24.056C69.6522 24.68 69.0522 25.2 68.2842 25.616C67.5322 26.016 66.6602 26.216 65.6682 26.216C64.5482 26.216 63.5242 25.928 62.5962 25.352C61.6842 24.776 60.9562 23.968 60.4122 22.928C59.8842 21.872 59.6202 20.664 59.6202 19.304ZM70.0842 19.352C70.0842 18.536 69.9242 17.84 69.6042 17.264C69.2842 16.672 68.8522 16.224 68.3082 15.92C67.7642 15.6 67.1802 15.44 66.5562 15.44C65.9322 15.44 65.3562 15.592 64.8282 15.896C64.3002 16.2 63.8682 16.648 63.5322 17.24C63.2122 17.816 63.0522 18.504 63.0522 19.304C63.0522 20.104 63.2122 20.808 63.5322 21.416C63.8682 22.008 64.3002 22.464 64.8282 22.784C65.3722 23.104 65.9482 23.264 66.5562 23.264C67.1802 23.264 67.7642 23.112 68.3082 22.808C68.8522 22.488 69.2842 22.04 69.6042 21.464C69.9242 20.872 70.0842 20.168 70.0842 19.352ZM81.9578 12.488C82.9498 12.488 83.8218 12.688 84.5738 13.088C85.3258 13.472 85.9178 13.976 86.3498 14.6V12.704H89.7338V26.096C89.7338 27.328 89.4858 28.424 88.9898 29.384C88.4938 30.36 87.7498 31.128 86.7578 31.688C85.7658 32.264 84.5658 32.552 83.1578 32.552C81.2698 32.552 79.7178 32.112 78.5018 31.232C77.3018 30.352 76.6218 29.152 76.4618 27.632H79.7978C79.9738 28.24 80.3498 28.72 80.9258 29.072C81.5178 29.44 82.2298 29.624 83.0618 29.624C84.0378 29.624 84.8298 29.328 85.4378 28.736C86.0458 28.16 86.3498 27.28 86.3498 26.096V24.032C85.9178 24.656 85.3178 25.176 84.5498 25.592C83.7978 26.008 82.9338 26.216 81.9578 26.216C80.8378 26.216 79.8138 25.928 78.8858 25.352C77.9578 24.776 77.2218 23.968 76.6778 22.928C76.1498 21.872 75.8858 20.664 75.8858 19.304C75.8858 17.96 76.1498 16.768 76.6778 15.728C77.2218 14.688 77.9498 13.888 78.8618 13.328C79.7898 12.768 80.8218 12.488 81.9578 12.488ZM86.3498 19.352C86.3498 18.536 86.1898 17.84 85.8698 17.264C85.5498 16.672 85.1178 16.224 84.5738 15.92C84.0298 15.6 83.4458 15.44 82.8218 15.44C82.1978 15.44 81.6218 15.592 81.0938 15.896C80.5658 16.2 80.1338 16.648 79.7978 17.24C79.4778 17.816 79.3178 18.504 79.3178 19.304C79.3178 20.104 79.4778 20.808 79.7978 21.416C80.1338 22.008 80.5658 22.464 81.0938 22.784C81.6378 23.104 82.2138 23.264 82.8218 23.264C83.4458 23.264 84.0298 23.112 84.5738 22.808C85.1178 22.488 85.5498 22.04 85.8698 21.464C86.1898 20.872 86.3498 20.168 86.3498 19.352ZM105.375 19.064C105.375 19.544 105.343 19.976 105.279 20.36H95.5594C95.6394 21.32 95.9754 22.072 96.5674 22.616C97.1594 23.16 97.8874 23.432 98.7514 23.432C99.9994 23.432 100.887 22.896 101.415 21.824H105.039C104.655 23.104 103.919 24.16 102.831 24.992C101.743 25.808 100.407 26.216 98.8234 26.216C97.5434 26.216 96.3914 25.936 95.3674 25.376C94.3594 24.8 93.5674 23.992 92.9914 22.952C92.4314 21.912 92.1514 20.712 92.1514 19.352C92.1514 17.976 92.4314 16.768 92.9914 15.728C93.5514 14.688 94.3354 13.888 95.3434 13.328C96.3514 12.768 97.5114 12.488 98.8234 12.488C100.087 12.488 101.215 12.76 102.207 13.304C103.215 13.848 103.991 14.624 104.535 15.632C105.095 16.624 105.375 17.768 105.375 19.064ZM101.895 18.104C101.879 17.24 101.567 16.552 100.959 16.04C100.351 15.512 99.6074 15.248 98.7274 15.248C97.8954 15.248 97.1914 15.504 96.6154 16.016C96.0554 16.512 95.7114 17.208 95.5834 18.104H101.895ZM108.5 22.208C110.036 20.928 111.26 19.864 112.172 19.016C113.084 18.152 113.844 17.256 114.452 16.328C115.06 15.4 115.364 14.488 115.364 13.592C115.364 12.776 115.172 12.136 114.788 11.672C114.404 11.208 113.812 10.976 113.012 10.976C112.212 10.976 111.596 11.248 111.164 11.792C110.732 12.32 110.508 13.048 110.492 13.976H107.228C107.292 12.056 107.86 10.6 108.932 9.608C110.02 8.616 111.396 8.12 113.06 8.12C114.884 8.12 116.284 8.608 117.26 9.584C118.236 10.544 118.724 11.816 118.724 13.4C118.724 14.648 118.388 15.84 117.716 16.976C117.044 18.112 116.276 19.104 115.412 19.952C114.548 20.784 113.42 21.792 112.028 22.976H119.108V25.76H107.252V23.264L108.5 22.208ZM133.825 14.432C133.825 15.328 133.609 16.168 133.177 16.952C132.761 17.736 132.097 18.368 131.185 18.848C130.289 19.328 129.153 19.568 127.777 19.568H124.969V26H121.609V9.248H127.777C129.073 9.248 130.177 9.472 131.089 9.92C132.001 10.368 132.681 10.984 133.129 11.768C133.593 12.552 133.825 13.44 133.825 14.432ZM127.633 16.856C128.561 16.856 129.249 16.648 129.697 16.232C130.145 15.8 130.369 15.2 130.369 14.432C130.369 12.8 129.457 11.984 127.633 11.984H124.969V16.856H127.633ZM142.067 9.248C143.827 9.248 145.371 9.592 146.699 10.28C148.043 10.968 149.075 11.952 149.795 13.232C150.531 14.496 150.899 15.968 150.899 17.648C150.899 19.328 150.531 20.8 149.795 22.064C149.075 23.312 148.043 24.28 146.699 24.968C145.371 25.656 143.827 26 142.067 26H136.211V9.248H142.067ZM141.947 23.144C143.707 23.144 145.067 22.664 146.027 21.704C146.987 20.744 147.467 19.392 147.467 17.648C147.467 15.904 146.987 14.544 146.027 13.568C145.067 12.576 143.707 12.08 141.947 12.08H139.571V23.144H141.947ZM163.758 9.248V11.96H156.774V16.256H162.126V18.92H156.774V26H153.414V9.248H163.758Z" fill="#0B5567"/>
<g clip-path="url(#clip0)">
<path d="M0.834113 8.33582C-2.74293 4.09447 7.93834 1.37716 9.9075 8.13501C11.5651 13.8059 8.72342 19.5122 2.09284 25.2303C2.09284 25.2303 6.16846 14.6683 0.833997 8.33582L0.834113 8.33582Z" fill="#0B5567"/>
<path d="M2.18021 25.1358C6.62967 21.0717 11.5901 14.3139 9.75798 8.01688C9.32183 6.55191 8.42436 5.5122 7.35256 4.83878L20.0279 10.7933C21.4612 11.644 21.1621 13.8178 20.0653 15.0465L6.15602 30.7831C4.85979 32.2126 2.55405 32.2953 1.15813 30.9722C-0.0757941 29.8025 -0.187948 27.9476 0.9089 26.6599L2.18021 25.1358Z" fill="#15A9CE"/>
</g>
<defs>
<clipPath id="clip0">
<rect width="28" height="21" fill="white" transform="matrix(4.37114e-08 -1 -1 -4.37114e-08 21 32)"/>
</clipPath>
</defs>
</svg>
